<svg width="17" height="24" viewBox="0 0 17 24" fill="none" xmlns="http://www.w3.org/2000/svg">
<path fill-rule="evenodd" clip-rule="evenodd" d="M5.68137 0.865723C6.16325 0.317151 6.85648 0 7.58353 0H14.465C16.6715 0 17.7875 2.63998 16.3672 4.26855C16.3587 4.27713 16.3503 4.28572 16.3503 4.29429C16.2826 4.36287 16.2574 4.39708 16.232 4.43136L12.2502 9.90004C12.1826 9.99433 12.098 10.0886 12.0473 10.1486C12.0388 10.1572 12.0304 10.1658 12.0219 10.1744C11.7091 10.543 11.9712 11.1429 12.47 11.1429C14.7357 11.1429 15.598 14.1171 13.7296 15.3685L3.33958 23.6744L3.30573 23.6999C3.00139 23.8971 2.64635 24 2.28282 24C0.820273 24 -0.0336108 22.4486 0.566627 21.2143C0.608897 21.1286 0.651283 21.0428 0.685099 20.9914C0.693553 20.9743 0.701817 20.9657 0.701817 20.9571C0.744088 20.8885 0.761062 20.8543 0.769516 20.8286L3.29727 14.6828C3.38181 14.4942 3.49176 14.3058 3.55939 14.1943C3.56785 14.1772 3.57633 14.16 3.58478 14.1514C3.91449 13.5943 3.52551 12.8571 2.85764 12.8571H2.54495C0.380712 12.8571 -0.785988 10.2943 0.600476 8.63149L5.63906 0.908622L5.68137 0.865723ZM6.98333 1.97147L1.94474 9.67718L1.9109 9.72008C1.42901 10.2686 1.80945 11.1429 2.54495 11.1429H2.85764C4.86971 11.1429 6.02798 13.3715 5.03885 15.0343C5.02194 15.06 5.005 15.0772 4.99654 15.103C4.92045 15.223 4.88671 15.2828 4.86135 15.3514L2.32514 21.4886C2.27441 21.6172 2.22355 21.7199 2.18128 21.7971C2.16437 21.8142 2.15609 21.8314 2.14763 21.8486C2.12227 21.9 2.09684 21.9342 2.07994 21.9685C2.05457 22.0285 2.05459 22.1056 2.09686 22.1828C2.13913 22.2428 2.19828 22.2857 2.28282 22.2857C2.31664 22.2857 2.35055 22.2771 2.37591 22.2686L12.7488 13.9715L12.7827 13.9457C13.273 13.6286 13.0533 12.8571 12.47 12.8571C10.5002 12.8571 9.50259 10.5172 10.7453 9.06006C10.7707 9.02577 10.7961 8.99998 10.813 8.98284C10.8469 8.93998 10.8636 8.91439 10.889 8.88867L14.8708 3.41141C14.9469 3.30855 15.0314 3.21423 15.0822 3.15423C15.0906 3.14566 15.0991 3.13706 15.0991 3.12849C15.5725 2.59706 15.1921 1.71429 14.465 1.71429H7.58353C7.35527 1.71429 7.14395 1.80861 6.98333 1.97147Z" fill="white"/>
</svg>
