<svg width="28" height="28" viewBox="0 0 28 28" fill="none" xmlns="http://www.w3.org/2000/svg">
<path d="M1 7.00244C1.55 7.00244 2 7.45244 2 8.00244V23.0024C2 24.6624 3.34 26.0024 5 26.0024H23C24.66 26.0024 26 24.6624 26 23.0024V8.00244C26 7.45244 26.45 7.00244 27 7.00244C27.55 7.00244 28 7.45244 28 8.00244V23.0024C28 25.7624 25.76 28.0024 23 28.0024H5C2.24 28.0024 0 25.7624 0 23.0024V8.00244C0 7.45244 0.450001 7.00244 1 7.00244Z" fill="white"/>
<path d="M13 3.4125L8.70994 7.71242C8.31994 8.10242 7.68002 8.10242 7.29002 7.71242C6.90002 7.32242 6.90002 6.6825 7.29002 6.2925L13.29 0.2925C13.68 -0.0975 14.3199 -0.0975 14.7099 0.2925L20.7099 6.2925C21.0999 6.6825 21.0999 7.32242 20.7099 7.71242C20.3199 8.10242 19.68 8.10242 19.29 7.71242L15 3.4125L15 21.0025C15 21.5525 14.55 22.0025 14 22.0025C13.45 22.0025 13 21.5525 13 21.0025L13 3.4125Z" fill="white"/>
</svg>
