<svg width="22" height="23" viewBox="0 0 22 23" fill="none" xmlns="http://www.w3.org/2000/svg">
<path fill-rule="evenodd" clip-rule="evenodd" d="M10.6786 0C7.50292 0 4.92856 2.57436 4.92856 5.75C4.92856 8.92564 7.50292 11.5 10.6786 11.5C13.8542 11.5 16.4286 8.92564 16.4286 5.75C16.4286 2.57436 13.8542 0 10.6786 0ZM6.57142 5.75C6.57142 3.48204 8.41059 1.64286 10.6786 1.64286C12.9465 1.64286 14.7857 3.48204 14.7857 5.75C14.7857 8.01796 12.9465 9.85714 10.6786 9.85714C8.41059 9.85714 6.57142 8.01796 6.57142 5.75Z" fill="white"/>
<path fill-rule="evenodd" clip-rule="evenodd" d="M3.78202 13.1429C2.69773 13.1429 1.60851 13.6858 1.0828 14.7463C0.652367 15.6137 0.125838 16.9034 0.0108376 18.2374C-0.0737695 19.2247 0.336937 20.2417 1.24544 20.8068C2.68376 21.6997 5.64748 23 10.6787 23C15.71 23 18.6737 21.6997 20.112 20.8068C21.0205 20.2417 21.4312 19.2247 21.3466 18.2374C21.2316 16.9034 20.7051 15.6137 20.2747 14.7463C19.749 13.6858 18.6597 13.1429 17.5754 13.1429H3.78202ZM2.55479 15.4757C2.76015 15.0609 3.21934 14.7857 3.78202 14.7857H17.5754C18.1381 14.7857 18.5973 15.0609 18.8027 15.4757C19.197 16.2709 19.6208 17.3445 19.7095 18.3778C19.7489 18.837 19.5575 19.2165 19.2454 19.4112C18.0732 20.1389 15.411 21.3571 10.6787 21.3571C5.94648 21.3571 3.28424 20.1389 2.11206 19.4112C1.79992 19.2165 1.60853 18.837 1.64795 18.3778C1.73667 17.3445 2.1605 16.2709 2.55479 15.4757Z" fill="white"/>
</svg>
