<svg width="28" height="28" viewBox="0 0 28 28" fill="none" xmlns="http://www.w3.org/2000/svg">
<path d="M1 7C1.55 7 2 7.45 2 8V23C2 24.66 3.34 26 5 26H23C24.66 26 26 24.66 26 23V8C26 7.45 26.45 7 27 7C27.55 7 28 7.45 28 8V23C28 25.76 25.76 28 23 28H5C2.24 28 0 25.76 0 23V8C0 7.45 0.450001 7 1 7Z" fill="white"/>
<path d="M13 18.59L8.70994 14.29C8.31994 13.9 7.68002 13.9 7.29002 14.29C6.90002 14.68 6.90002 15.32 7.29002 15.71L13.29 21.71C13.68 22.1 14.3199 22.1 14.7099 21.71L20.7099 15.71C21.0999 15.32 21.0999 14.68 20.7099 14.29C20.3199 13.9 19.68 13.9 19.29 14.29L15 18.59V1C15 0.45 14.55 0 14 0C13.45 0 13 0.45 13 1L13 18.59Z" fill="white"/>
</svg>
