<svg width="22" height="22" viewBox="0 0 22 22" fill="none" xmlns="http://www.w3.org/2000/svg">
<path fill-rule="evenodd" clip-rule="evenodd" d="M22 18.0714C22 20.24 20.24 22 18.0714 22H3.92857C1.76 22 0 20.24 0 18.0714V3.92857C0 1.76 1.76 0 3.92857 0H18.0714C20.24 0 22 1.76 22 3.92857V18.0714ZM20.4286 6.28571V3.92857C20.4286 2.62429 19.3757 1.57143 18.0714 1.57143H3.92857C2.62429 1.57143 1.57143 2.62429 1.57143 3.92857V18.0714C1.57143 19.3757 2.62429 20.4286 3.92857 20.4286H18.0714C19.3757 20.4286 20.4286 19.3757 20.4286 18.0714V15.7143H14.1429C11.9743 15.7143 10.2143 13.9543 10.2143 11.7857V10.2143C10.2143 8.04571 11.9743 6.28571 14.1429 6.28571H20.4286ZM20.4286 7.85714H14.1429C12.8386 7.85714 11.7857 8.91 11.7857 10.2143V11.7857C11.7857 13.09 12.8386 14.1429 14.1429 14.1429H20.4286V7.85714Z" fill="white"/>
</svg>
